<?xml version="1.0" encoding="iso-8859-1"?>
<!-- Generator: Adobe Illustrator 26.3.1, SVG Export Plug-In . SVG Version: 6.00 Build 0)  -->
<svg version="1.1" id="Layer_1" xmlns="http://www.w3.org/2000/svg" xmlns:xlink="http://www.w3.org/1999/xlink" x="0px"
	y="0px" viewBox="0 0 80 79.42" style="enable-background:new 0 0 532.12 79.42;" xml:space="preserve">
	<style type="text/css">
		.st0 {
			fill: url(#SVGID_1_);
		}

		.st1 {
			fill: url(#SVGID_00000043435647776545005790000006733776668186816663_);
		}

		.st2 {
			fill: url(#SVGID_00000182504789496406682130000000578746290184076688_);
		}

		.st3 {
			fill: url(#SVGID_00000178185084530467816820000003726757614864071817_);
		}

		.st4 {
			fill: url(#SVGID_00000060751235476791101070000000027273679302251691_);
		}

		.st5 {
			fill: url(#SVGID_00000078037441457510711740000004990481181403634082_);
		}

		.st6 {
			fill: #026164;
		}

		.st7 {
			fill: #1995A3;
		}

		.st8 {
			fill: #81C9C3;
		}

		.st9 {
			fill: #8CC04D;
		}

		.st10 {
			fill: #CBD73E;
		}

		.st11 {
			fill: url(#SVGID_00000045590880417346681290000014097116018589817487_);
		}

		.st12 {
			fill: url(#SVGID_00000101801719037264519380000005399597560637775749_);
		}

		.st13 {
			fill: url(#SVGID_00000127031408135613349330000007468307024303849636_);
		}

		.st14 {
			fill: url(#SVGID_00000018217655816212800770000005891303854587902873_);
		}

		.st15 {
			fill: url(#SVGID_00000039826133774354368900000009166503257766237611_);
		}

		.st16 {
			fill: url(#SVGID_00000038395839489444159300000017747695590773937341_);
		}

		.st17 {
			fill: #3CA55E;
		}

		.st18 {
			fill: #43A046;
		}

		.st19 {
			fill: #7EBA39;
		}

		.st20 {
			fill: #FFFFFF;
		}

		.st21 {
			fill: url(#SVGID_00000171693349296326531290000009157354745492828053_);
		}

		.st22 {
			fill: url(#SVGID_00000114060204252302241860000010352237114568261261_);
		}

		.st23 {
			fill: url(#SVGID_00000060727199623204170610000005617751338525994159_);
		}

		.st24 {
			fill: url(#SVGID_00000116943590763017926840000009580505406077807767_);
		}

		.st25 {
			fill: url(#SVGID_00000035488991874928652040000014028623532395337374_);
		}

		.st26 {
			fill: url(#SVGID_00000124855288837163173550000016871155970692755843_);
		}

		.st27 {
			fill: url(#SVGID_00000093863363930654023040000017302294208643929752_);
		}

		.st28 {
			fill: url(#SVGID_00000130607486616692218050000002592870425221725871_);
		}

		.st29 {
			fill: url(#SVGID_00000156566876233347420440000001309746199065502354_);
		}

		.st30 {
			fill: url(#SVGID_00000040533971048967642460000013026059393377101729_);
		}

		.st31 {
			fill: url(#SVGID_00000067206684734070276650000014396104931058064053_);
		}

		.st32 {
			fill: url(#SVGID_00000148638942604714496410000008185700190807368842_);
		}

		.st33 {
			fill: url(#SVGID_00000182506072875753555380000007160873570161332395_);
		}

		.st34 {
			fill: url(#SVGID_00000020392965604984700070000012640535613747998899_);
		}

		.st35 {
			fill: url(#SVGID_00000059295056070908245650000009286275895656022965_);
		}

		.st36 {
			fill: url(#SVGID_00000063599107885647051310000010441588204605386127_);
		}

		.st37 {
			fill: url(#SVGID_00000158747079350247041580000008911379686931211948_);
		}

		.st38 {
			fill: url(#SVGID_00000157266630468565002390000013773211268841147549_);
		}

		.st39 {
			fill: url(#SVGID_00000168836949280830220330000008774372601183388303_);
		}

		.st40 {
			fill: url(#SVGID_00000023256450811556367210000016739997921624932255_);
		}

		.st41 {
			fill: url(#SVGID_00000082367526128207866220000014213987889928606900_);
		}

		.st42 {
			fill: url(#SVGID_00000062874629578459383400000005258047892882685834_);
		}

		.st43 {
			fill: url(#SVGID_00000036221680674718773410000011737058124070941630_);
		}

		.st44 {
			fill: url(#SVGID_00000036955867581484473770000002437790854704187569_);
		}
	</style>
	<g>

		<linearGradient id="SVGID_1_" gradientUnits="userSpaceOnUse" x1="70.8979" y1="7.951" x2="49.3707" y2="32.122"
			gradientTransform="matrix(1 0 -0.1255 1 -24.318 0)">
			<stop offset="0.2059" style="stop-color:#3CA55E" />
			<stop offset="0.2672" style="stop-color:#349B62" />
			<stop offset="0.4608" style="stop-color:#1E8167" />
			<stop offset="0.6506" style="stop-color:#106F67" />
			<stop offset="0.833" style="stop-color:#056465" />
			<stop offset="1" style="stop-color:#026164" />
		</linearGradient>
		<path class="st0" d="M17.67,36.48c-0.64-1.94-0.05-4.14,1.54-5.75l19.9-20.63l3.4,3.29L22.62,34.01c-0.05,0.05-0.17,0.17-0.1,0.38
		c0.07,0.21,0.23,0.21,0.3,0.21L17.67,36.48z" />

		<linearGradient id="SVGID_00000150064287256391626470000015720936293151850674_" gradientUnits="userSpaceOnUse"
			x1="70.5148" y1="14.7434" x2="62.5837" y2="33.6268" gradientTransform="matrix(1 0 -0.1255 1 -24.318 0)">
			<stop offset="0" style="stop-color:#3CA55E" />
			<stop offset="0.5004" style="stop-color:#40A65C" />
			<stop offset="0.7976" style="stop-color:#4AAA55" />
			<stop offset="1" style="stop-color:#57B04C" />
		</linearGradient>
		<path style="fill:url(#SVGID_00000150064287256391626470000015720936293151850674_);" d="M47.27,15.75l-0.05,0.08L35.65,34.59
		h-5.61l12.91-20.93c0.07-0.13,0.05-0.17,0.04-0.2L47.27,15.75z" />

		<linearGradient id="SVGID_00000133499799170056870610000008818180782008303761_" gradientUnits="userSpaceOnUse"
			x1="83.908" y1="48.4714" x2="67.4793" y2="68.299" gradientTransform="matrix(1 0 -0.1255 1 -24.318 0)">
			<stop offset="0" style="stop-color:#A5C95B" />
			<stop offset="0.204" style="stop-color:#A4C95E" />
			<stop offset="0.3718" style="stop-color:#A1C968" />
			<stop offset="0.5269" style="stop-color:#9DC978" />
			<stop offset="0.6743" style="stop-color:#97CA8E" />
			<stop offset="0.8163" style="stop-color:#8ECAA7" />
			<stop offset="0.9523" style="stop-color:#82C9C3" />
			<stop offset="1" style="stop-color:#7DC9CD" />
		</linearGradient>
		<path style="fill:url(#SVGID_00000133499799170056870610000008818180782008303761_);" d="M32.96,66.13c0.06,0,0.18,0,0.39-0.21
		l17-17.12c0.05-0.05,0.17-0.17,0.1-0.38l4.84-2.09c0.64,1.94,0.05,4.16-1.56,5.77l-17,17.12c-1.25,1.25-2.81,1.95-4.41,1.95
		c0,0,0,0,0,0L32.96,66.13z" />

		<linearGradient id="SVGID_00000041272486067372563940000009187103214907830418_" gradientUnits="userSpaceOnUse"
			x1="50.6048" y1="38.9594" x2="72.5482" y2="38.8293" gradientTransform="matrix(1 0 -0.1255 1 -24.318 0)">
			<stop offset="0" style="stop-color:#026164" />
			<stop offset="1" style="stop-color:#1995A3" />
		</linearGradient>
		<path style="fill:url(#SVGID_00000041272486067372563940000009187103214907830418_);" d="M45.23,36.65
		c-0.7-1.29-2.04-2.05-3.58-2.05h-5.99h-5.61h-7.23c-0.07,0-5.14,1.88-5.14,1.88c0.64,1.94,2.37,3.15,4.51,3.15h4.76h5.61h7.84
		l-1.96,3.55h5.47l1.2-2.18l0.01-0.02C45.88,39.55,45.93,37.93,45.23,36.65z" />

		<linearGradient id="SVGID_00000030454148116608846790000001681637434249169085_" gradientUnits="userSpaceOnUse"
			x1="68.8257" y1="50.1421" x2="63.4661" y2="65.8504" gradientTransform="matrix(1 0 -0.1255 1 -24.318 0)">
			<stop offset="0" style="stop-color:#1995A3" />
			<stop offset="1" style="stop-color:#7DC9CD" />
		</linearGradient>
		<path style="fill:url(#SVGID_00000030454148116608846790000001681637434249169085_);" d="M36.49,48.22l-8.38,15.19l-0.01,0.02
		c-0.95,1.76-1.02,3.66-0.19,5.2c0.85,1.57,2.54,2.54,4.41,2.54l0.63-5.04c-0.19,0-0.41-0.13-0.5-0.3c-0.05-0.09-0.09-0.2,0.05-0.46
		l9.46-17.15H36.49z" />

		<linearGradient id="SVGID_00000042725993243228615900000017604868792914094002_" gradientUnits="userSpaceOnUse"
			x1="61.0129" y1="43.8963" x2="81.1443" y2="45.6305" gradientTransform="matrix(1 0 -0.1255 1 -24.318 0)">
			<stop offset="0.4047" style="stop-color:#57B04C" />
			<stop offset="1" style="stop-color:#A5C95B" />
		</linearGradient>
		<path style="fill:url(#SVGID_00000042725993243228615900000017604868792914094002_);" d="M50.78,43.18h-6.04h-5.47H31.2l2.19-3.55
		h-5.61l-1.29,2.09l-0.05,0.08c-0.81,1.42-0.89,3.04-0.21,4.34c0.68,1.3,2.01,2.08,3.56,2.08h6.69h5.47h8.19c0.07,0,0.23,0,0.3,0.21
		l4.84-2.09C54.65,44.39,52.92,43.18,50.78,43.18z" />
		<path class="st17" d="M39.11,10.09c1.19-1.2,2.68-1.86,4.21-1.86c1.81,0,3.44,0.95,4.24,2.49c0.79,1.51,0.69,3.34-0.28,5.03
		l-4.29-2.29c-0.06-0.11-0.2-0.19-0.3-0.19c-0.02,0-0.06,0-0.18,0.11L39.11,10.09z" />
	</g>
</svg>