<?xml version="1.0" encoding="utf-8"?>
<!-- Generator: Adobe Illustrator 27.9.0, SVG Export Plug-In . SVG Version: 6.00 Build 0)  -->
<svg version="1.1" id="Layer_1" xmlns="http://www.w3.org/2000/svg" xmlns:xlink="http://www.w3.org/1999/xlink" x="0px"
	y="0px" viewBox="0 0 112 112.5" style="enable-background:new 0 0 384.9 112.5;" xml:space="preserve">
	<style type="text/css">
		.st0 {
			fill-rule: evenodd;
			clip-rule: evenodd;
			fill: url(#SVGID_1_);
		}

		.st1 {
			fill-rule: evenodd;
			clip-rule: evenodd;
			fill: #0DC0B4;
		}

		.st2 {
			fill: #07ECEA;
		}

		.st3 {
			fill: #298FCB;
		}

		.st4 {
			fill-rule: evenodd;
			clip-rule: evenodd;
			fill: #34C583;
		}

		.st5 {
			fill: #44F49E;
		}

		.st6 {
			fill-rule: evenodd;
			clip-rule: evenodd;
			fill: #5FCB4E;
		}

		.st7 {
			fill: #94FE3A;
		}
	</style>
	<g>
		<linearGradient id="SVGID_1_" gradientUnits="userSpaceOnUse" x1="59.1135" y1="94.0271" x2="59.1135"
			y2="29.1277">
			<stop offset="0" style="stop-color:#06D4D3" />
			<stop offset="1" style="stop-color:#85E534" />
		</linearGradient>
		<polygon class="st0"
			points="44.8,34.3 59.1,29.1 73.4,34.3 73.4,34.3 73.4,88.9 59.1,94 44.8,88.9 44.8,34.3 44.8,34.3 	" />
		<polygon class="st1" points="44.8,85.7 44.8,88.9 59.1,94 73.4,88.9 73.4,85.7 59.1,90.8 44.8,85.7 	" />
		<polygon class="st2" points="99,68.8 82.5,74.7 97.6,80.1 59.1,94 20.6,80.1 35.7,74.7 19.3,68.8 7.8,72.9 7.8,87.4 59.1,105.9 
		110.5,87.4 110.5,72.9 99,68.8 	" />
		<polygon class="st3" points="73.3,51.8 73.4,51.8 73.4,51.7 73.3,51.8 	" />
		<polygon class="st3" points="44.8,51.8 45,51.8 44.8,51.7 44.8,51.8 	" />
		<polygon class="st4"
			points="44.8,62.9 44.8,73.8 59.1,78.9 73.4,73.8 73.4,62.9 65.1,65.9 59.1,68.1 53.1,65.9 44.8,62.9 	" />
		<polygon class="st5" points="98.5,45.8 98.5,45.8 82.1,51.8 97.6,57.4 82.5,62.8 73.4,66.1 66.1,68.8 59.1,71.3 52.1,68.8 
		44.8,66.1 35.7,62.8 20.6,57.4 36.1,51.8 19.7,45.8 19.7,45.8 7.8,50.1 7.8,64.6 19.3,68.8 35.7,74.7 44.8,78 59.1,83.2 73.4,78 
		82.5,74.7 99,68.8 110.5,64.6 110.5,50.1 98.5,45.8 	" />
		<polygon class="st6" points="44.8,39.8 44.8,51.5 59.1,56.7 73.4,51.5 73.4,39.8 59.1,45 44.8,39.8 	" />
		<path class="st7" d="M82.1,39.9L73.4,43l-7.7,2.8l-6.6,2.4l-6.6-2.4L44.8,43l-8.7-3.1l-15.5-5.6l38.5-13.9l38.5,13.9L82.1,39.9
		L82.1,39.9z M59.1,8.5L7.8,27.1v14.5l11.9,4.3l16.4,5.9l8.7,3.1l14.3,5.2l14.3-5.2l8.7-3.1l16.4-5.9l11.9-4.3V27.1L59.1,8.5
		L59.1,8.5z" />
	</g>
</svg>